<svg width="20" height="20" viewBox="0 0 20 20" fill="none" xmlns="http://www.w3.org/2000/svg">
<path fill-rule="evenodd" clip-rule="evenodd" d="M5.5 0.5C5.10218 0.5 4.72064 0.658035 4.43934 0.93934C4.15804 1.22064 4 1.60218 4 2V18C4 18.3978 4.15804 18.7794 4.43934 19.0607C4.72064 19.342 5.10218 19.5 5.5 19.5H14.5C14.8978 19.5 15.2794 19.342 15.5607 19.0607C15.842 18.7794 16 18.3978 16 18V2C16 1.60218 15.842 1.22064 15.5607 0.93934C15.2794 0.658035 14.8978 0.5 14.5 0.5H5.5ZM5 2C5 1.86739 5.05268 1.74021 5.14645 1.64645C5.24021 1.55268 5.36739 1.5 5.5 1.5H7V2.5C7 2.63261 7.05268 2.75979 7.14645 2.85355C7.24021 2.94732 7.36739 3 7.5 3H12.5C12.6326 3 12.7598 2.94732 12.8536 2.85355C12.9473 2.75979 13 2.63261 13 2.5V1.5H14.5C14.6326 1.5 14.7598 1.55268 14.8536 1.64645C14.9473 1.74021 15 1.86739 15 2V18C15 18.1326 14.9473 18.2598 14.8536 18.3536C14.7598 18.4473 14.6326 18.5 14.5 18.5H5.5C5.36739 18.5 5.24021 18.4473 5.14645 18.3536C5.05268 18.2598 5 18.1326 5 18V2Z" fill="url(#paint0_linear_25_159)"/>
<defs>
<linearGradient id="paint0_linear_25_159" x1="10" y1="0.5" x2="10" y2="19.5" gradientUnits="userSpaceOnUse">
<stop stop-color="#E9CCAE"/>
<stop offset="1" stop-color="#666666"/>
</linearGradient>
</defs>
</svg>
