<svg width="20" height="20" viewBox="0 0 20 20" fill="none" xmlns="http://www.w3.org/2000/svg">
<path d="M8.23552 14.7058H11.7649M4.11788 18.2352H15.8826C16.1946 18.2352 16.4938 18.1113 16.7145 17.8907C16.9351 17.67 17.0591 17.3708 17.0591 17.0588V2.94112C17.0591 2.6291 16.9351 2.32986 16.7145 2.10923C16.4938 1.8886 16.1946 1.76465 15.8826 1.76465H4.11788C3.80586 1.76465 3.50662 1.8886 3.28599 2.10923C3.06536 2.32986 2.94141 2.6291 2.94141 2.94112V17.0588C2.94141 17.3708 3.06536 17.67 3.28599 17.8907C3.50662 18.1113 3.80586 18.2352 4.11788 18.2352Z" stroke="url(#paint0_linear_20_31)"/>
<defs>
<linearGradient id="paint0_linear_20_31" x1="10.0002" y1="1.76465" x2="10.0002" y2="18.2352" gradientUnits="userSpaceOnUse">
<stop stop-color="#E9CCAE"/>
<stop offset="1" stop-color="#837362"/>
</linearGradient>
</defs>
</svg>
