<svg width="22" height="22" viewBox="0 0 22 22" fill="none" xmlns="http://www.w3.org/2000/svg">
<path d="M19.9375 14.6094H19.0781V6.1875C19.0781 5.68608 18.8789 5.20519 18.5244 4.85063C18.1698 4.49607 17.6889 4.29688 17.1875 4.29688H4.8125C4.31108 4.29688 3.83019 4.49607 3.47563 4.85063C3.12107 5.20519 2.92188 5.68608 2.92188 6.1875V14.6094H2.0625C1.92575 14.6094 1.7946 14.6637 1.6979 14.7604C1.6012 14.8571 1.54688 14.9882 1.54688 15.125V16.5C1.54688 17.0014 1.74607 17.4823 2.10063 17.8369C2.45519 18.1914 2.93608 18.3906 3.4375 18.3906H18.5625C19.0639 18.3906 19.5448 18.1914 19.8994 17.8369C20.2539 17.4823 20.4531 17.0014 20.4531 16.5V15.125C20.4531 14.9882 20.3988 14.8571 20.3021 14.7604C20.2054 14.6637 20.0743 14.6094 19.9375 14.6094ZM3.95312 6.1875C3.95312 5.95958 4.04367 5.74099 4.20483 5.57983C4.36599 5.41867 4.58458 5.32812 4.8125 5.32812H17.1875C17.4154 5.32812 17.634 5.41867 17.7952 5.57983C17.9563 5.74099 18.0469 5.95958 18.0469 6.1875V14.6094H3.95312V6.1875ZM19.4219 16.5C19.4219 16.7279 19.3313 16.9465 19.1702 17.1077C19.009 17.2688 18.7904 17.3594 18.5625 17.3594H3.4375C3.20958 17.3594 2.99099 17.2688 2.82983 17.1077C2.66867 16.9465 2.57812 16.7279 2.57812 16.5V15.6406H19.4219V16.5ZM12.8906 7.5625C12.8906 7.69925 12.8363 7.8304 12.7396 7.9271C12.6429 8.0238 12.5118 8.07812 12.375 8.07812H9.625C9.48825 8.07812 9.3571 8.0238 9.2604 7.9271C9.1637 7.8304 9.10938 7.69925 9.10938 7.5625C9.10938 7.42575 9.1637 7.2946 9.2604 7.1979C9.3571 7.1012 9.48825 7.04688 9.625 7.04688H12.375C12.5118 7.04688 12.6429 7.1012 12.7396 7.1979C12.8363 7.2946 12.8906 7.42575 12.8906 7.5625Z" fill="url(#paint0_linear_20_44)"/>
<defs>
<linearGradient id="paint0_linear_20_44" x1="11" y1="4.29687" x2="11" y2="18.3906" gradientUnits="userSpaceOnUse">
<stop stop-color="#E9CCAE"/>
<stop offset="1" stop-color="#837362"/>
</linearGradient>
</defs>
</svg>
