<svg width="20" height="20" viewBox="0 0 20 20" fill="none" xmlns="http://www.w3.org/2000/svg">
<path d="M17.5 12.5V10C17.5 9.01509 17.306 8.03982 16.9291 7.12987C16.5522 6.21993 15.9997 5.39314 15.3033 4.6967C14.6069 4.00026 13.7801 3.44781 12.8701 3.0709C11.9602 2.69399 10.9849 2.5 10 2.5C9.01509 2.5 8.03982 2.69399 7.12987 3.0709C6.21993 3.44781 5.39314 4.00026 4.6967 4.6967C4.00026 5.39314 3.44781 6.21993 3.0709 7.12987C2.69399 8.03982 2.5 9.01509 2.5 10V12.5" stroke="url(#paint0_linear_23_69)" stroke-width="1.5" stroke-linecap="round"/>
<path d="M2.5 12.5V11.875H1.875V12.5H2.5ZM2.5 13.125H5V11.875H2.5V13.125ZM5.20833 13.3333V15.8333H6.45833V13.3333H5.20833ZM3.125 15.8333V12.5H1.875V15.8333H3.125ZM4.16667 16.875C3.59167 16.875 3.125 16.4083 3.125 15.8333H1.875C1.875 16.4411 2.11644 17.024 2.54621 17.4538C2.97598 17.8836 3.55888 18.125 4.16667 18.125V16.875ZM5.20833 15.8333C5.20833 16.4083 4.74167 16.875 4.16667 16.875V18.125C4.77445 18.125 5.35735 17.8836 5.78712 17.4538C6.21689 17.024 6.45833 16.4411 6.45833 15.8333H5.20833ZM5 13.125C5.05525 13.125 5.10824 13.1469 5.14731 13.186C5.18638 13.2251 5.20833 13.2781 5.20833 13.3333H6.45833C6.45833 12.9466 6.30469 12.5756 6.0312 12.3021C5.75771 12.0286 5.38677 11.875 5 11.875V13.125ZM17.5 12.5H18.125V11.875H17.5V12.5ZM15 13.125H17.5V11.875H15V13.125ZM16.875 12.5V15.8333H18.125V12.5H16.875ZM14.7917 15.8333V13.3333H13.5417V15.8333H14.7917ZM15.8333 16.875C15.2583 16.875 14.7917 16.4083 14.7917 15.8333H13.5417C13.5417 16.4411 13.7831 17.024 14.2129 17.4538C14.6427 17.8836 15.2255 18.125 15.8333 18.125V16.875ZM16.875 15.8333C16.875 16.4083 16.4083 16.875 15.8333 16.875V18.125C16.4411 18.125 17.024 17.8836 17.4538 17.4538C17.8836 17.024 18.125 16.4411 18.125 15.8333H16.875ZM15 11.875C14.6132 11.875 14.2423 12.0286 13.9688 12.3021C13.6953 12.5756 13.5417 12.9466 13.5417 13.3333H14.7917C14.7917 13.2781 14.8136 13.2251 14.8527 13.186C14.8918 13.1469 14.9447 13.125 15 13.125V11.875Z" fill="url(#paint1_linear_23_69)"/>
<defs>
<linearGradient id="paint0_linear_23_69" x1="10" y1="2.5" x2="10" y2="12.5" gradientUnits="userSpaceOnUse">
<stop stop-color="#E9CCAE"/>
<stop offset="1" stop-color="#666666"/>
</linearGradient>
<linearGradient id="paint1_linear_23_69" x1="10" y1="11.875" x2="10" y2="18.125" gradientUnits="userSpaceOnUse">
<stop stop-color="#E9CCAE"/>
<stop offset="1" stop-color="#666666"/>
</linearGradient>
</defs>
</svg>
