<svg width="20" height="20" viewBox="0 0 20 20" fill="none" xmlns="http://www.w3.org/2000/svg">
<path d="M4.16602 17.0834C4.04768 17.0834 3.94879 17.0434 3.86935 16.9634C3.7899 16.8834 3.7499 16.7845 3.74935 16.6667V15.7376H2.91602V12.8209C2.91602 12.7026 2.95602 12.6034 3.03602 12.5234C3.11602 12.4434 3.2149 12.4034 3.33268 12.4034H4.58268V5.83341C4.58268 5.02341 4.86629 4.3348 5.43352 3.76758C6.00074 3.20036 6.68935 2.91675 7.49935 2.91675C8.30935 2.91675 8.99796 3.20036 9.56518 3.76758C10.1324 4.3348 10.416 5.02341 10.416 5.83341V14.1667C10.416 14.7534 10.6166 15.2473 11.0177 15.6484C11.4188 16.0495 11.9127 16.2501 12.4993 16.2501C13.086 16.2501 13.5799 16.0495 13.981 15.6484C14.3821 15.2473 14.5827 14.7534 14.5827 14.1667V7.59675H13.3327C13.2143 7.59675 13.1155 7.55675 13.036 7.47675C12.9566 7.39675 12.9166 7.29786 12.916 7.18008V4.26341H13.7493V3.33341C13.7493 3.21508 13.7893 3.11619 13.8693 3.03675C13.9493 2.9573 14.0482 2.9173 14.166 2.91675H15.8327C15.951 2.91675 16.0499 2.95675 16.1294 3.03675C16.2088 3.11675 16.2488 3.21564 16.2493 3.33341V4.26341H17.0827V7.18008C17.0827 7.29786 17.0427 7.39675 16.9627 7.47675C16.8827 7.55675 16.7838 7.59675 16.666 7.59675H15.416V14.1667C15.416 14.9767 15.1324 15.6654 14.5652 16.2326C13.998 16.7998 13.3093 17.0834 12.4993 17.0834C11.6893 17.0834 11.0007 16.7998 10.4335 16.2326C9.86629 15.6654 9.58268 14.9767 9.58268 14.1667V5.83341C9.58268 5.24675 9.38213 4.75286 8.98102 4.35175C8.5799 3.95064 8.08602 3.75008 7.49935 3.75008C6.91268 3.75008 6.41879 3.95064 6.01768 4.35175C5.61657 4.75286 5.41602 5.24675 5.41602 5.83341V12.4042H6.66602C6.78435 12.4042 6.88324 12.444 6.96268 12.5234C7.04213 12.6029 7.08213 12.7017 7.08268 12.8201V15.7367H6.24935V16.6667C6.24935 16.7851 6.20935 16.884 6.12935 16.9634C6.04935 17.0429 5.95046 17.0829 5.83268 17.0834H4.16602Z" fill="url(#paint0_linear_23_78)"/>
<defs>
<linearGradient id="paint0_linear_23_78" x1="9.99935" y1="2.91675" x2="9.99935" y2="17.0834" gradientUnits="userSpaceOnUse">
<stop stop-color="#E9CCAE"/>
<stop offset="1" stop-color="#666666"/>
</linearGradient>
</defs>
</svg>
