<svg width="14" height="15" viewBox="0 0 14 15" fill="none" xmlns="http://www.w3.org/2000/svg">
<path fill-rule="evenodd" clip-rule="evenodd" d="M13 8.75V12.5C13 13.0967 12.7629 13.669 12.341 14.091C11.919 14.5129 11.3467 14.75 10.75 14.75H7.75V8.75H13ZM6.25 8.75V14.75H3.25C2.65326 14.75 2.08097 14.5129 1.65901 14.091C1.23705 13.669 1 13.0967 1 12.5L1 8.75H6.25ZM4.75 0.500002C5.17569 0.499497 5.59659 0.589819 5.98459 0.764937C6.37259 0.940056 6.71877 1.19594 7 1.5155C7.28123 1.19594 7.62741 0.940056 8.01541 0.764937C8.40341 0.589819 8.82431 0.499497 9.25 0.500002L9.625 0.500002C9.92337 0.500002 10.2095 0.618529 10.4205 0.829507C10.6315 1.04049 10.75 1.32663 10.75 1.625V2C10.75 2.54675 10.6038 3.059 10.3488 3.5L12.25 3.5C12.6478 3.5 13.0294 3.65804 13.3107 3.93934C13.592 4.22065 13.75 4.60218 13.75 5V6.5C13.75 6.773 13.6773 7.0295 13.549 7.25L7.75 7.25V5C7.75 4.80109 7.67098 4.61032 7.53033 4.46967C7.38968 4.32902 7.19891 4.25 7 4.25C6.80109 4.25 6.61032 4.32902 6.46967 4.46967C6.32902 4.61032 6.25 4.80109 6.25 5V7.25H0.451001C0.319005 7.02211 0.249658 6.76336 0.250001 6.5L0.250001 5C0.250001 4.60218 0.408036 4.22065 0.689341 3.93934C0.970646 3.65804 1.35218 3.5 1.75 3.5H3.65125C3.38759 3.04413 3.24916 2.52663 3.25 2V1.625C3.25 1.32663 3.36853 1.04049 3.57951 0.829507C3.79048 0.618529 4.07663 0.500002 4.375 0.500002H4.75ZM4.75 2C4.75 2.39783 4.90804 2.77936 5.18934 3.06066C5.47065 3.34197 5.85218 3.5 6.25 3.5C6.25 3.10218 6.09197 2.72065 5.81066 2.43934C5.52936 2.15804 5.14783 2 4.75 2ZM9.25 2C8.85218 2 8.47065 2.15804 8.18934 2.43934C7.90804 2.72065 7.75 3.10218 7.75 3.5C8.14783 3.5 8.52936 3.34197 8.81066 3.06066C9.09197 2.77936 9.25 2.39783 9.25 2Z" fill="url(#paint0_linear_389_1146)"/>
<defs>
<linearGradient id="paint0_linear_389_1146" x1="7" y1="0.5" x2="7" y2="14.75" gradientUnits="userSpaceOnUse">
<stop stop-color="#E9CCAE"/>
<stop offset="0.445" stop-color="#E0E361"/>
<stop offset="1" stop-color="#CB843B"/>
</linearGradient>
</defs>
</svg>
